<?xml version="1.0" encoding="utf-8"?>
<!-- Generator: Adobe Illustrator 26.5.1, SVG Export Plug-In . SVG Version: 6.00 Build 0)  -->
<svg version="1.1" xmlns="http://www.w3.org/2000/svg" xmlns:xlink="http://www.w3.org/1999/xlink" x="0px" y="0px"
	 viewBox="0 0 16 16" style="enable-background:new 0 0 16 16;" xml:space="preserve">
<style type="text/css">
	.st0{display:none;}
	.st1{display:inline;fill:none;stroke:#000000;stroke-width:0.05;stroke-miterlimit:10;}
	.st2{fill:none;stroke:#000000;stroke-width:0.05;stroke-miterlimit:10;}
	.st3{stroke:#000000;stroke-width:0.05;stroke-miterlimit:10;}
	.st4{fill:#FFFFFF;stroke:#000000;stroke-width:0.05;stroke-miterlimit:10;}
	.st5{fill:#F36F27;stroke:#000000;stroke-width:0.05;stroke-miterlimit:10;}
</style>
<g id="Layer_1" class="st0">
	<path class="st1" d="M9.46,5.41"/>
	<path class="st1" d="M6.76,8.06c0,0-1.5-1.5-1.51-1.51C4.9,6.9,4.42,7.38,4.18,7.62c0.33,0.33,1.16,1.16,1.51,1.51
		c-0.3,0.3-0.96,0.96-1.11,1.11c0,0-1.14-1.14-1.51-1.51C2.66,9.14,2.19,9.61,1.99,9.81c0.44,0.44,1.24,1.24,1.51,1.51
		c0,0,2.06,0,2.14,0c0.15-0.15,0.8-0.8,1.1-1.1c0.23,0.23,0.89,0.89,1.25,1.25c0,0,0.51,0,0.76,0c0.15-0.15,0.71-0.71,0.71-0.71"/>
	<path class="st1" d="M9.07,10.37"/>
	<path class="st1" d="M3.5,11.32"/>
	<line class="st1" x1="7.99" y1="6.83" x2="6.48" y2="5.32"/>
	<path class="st1" d="M11.13,5.21"/>
	<path class="st1" d="M10.88,7.55"/>
	<path class="st1" d="M9.7,2.03"/>
	<path class="st1" d="M12.63,5.6"/>
	<path class="st1" d="M6.75,10.2c0,0,2.52-2.52,3.41-3.41c0-0.74,0-2.08,0-2.08s0-0.03,0-0.08C10,4.48,9.75,4.23,9.72,4.2
		c0.09-0.09,1.2-1.2,1.2-1.2"/>
	<path class="st1" d="M11.23,5.72"/>
	<path class="st1" d="M11.08,7.75"/>
	<path class="st1" d="M4.98,9.84"/>
	<path class="st1" d="M6.06,10.86"/>
	<line class="st1" x1="6.9" y1="12.55" x2="7.65" y2="12.55"/>
	<path class="st1" d="M6.02,10.9c0,0,1.64,1.64,1.64,1.64c0,0-0.6,0.6-1.09,1.09c-0.01,0-0.02,0-0.02,0s-0.73,0-0.73,0
		c-0.71-0.71-2.16-2.16-2.17-2.17c0.01,0,0.02,0,0.02,0h2.12c0,0,0.02,0,0.04,0c0.15,0.15,0.77,0.77,1.08,1.08"/>
	<path class="st1" d="M11.07,9.13c0,0-0.63,0-0.76,0L9.05,7.88"/>
	<line class="st1" x1="9.71" y1="4.2" x2="10.48" y2="4.2"/>
	<line class="st1" x1="10.48" y1="4.2" x2="11.3" y2="3.38"/>
	<path class="st1" d="M4.96,9.85c0,0-0.65-0.65-1.13-1.13c-0.04,0-0.06,0-0.06,0h-0.7"/>
	<path class="st1" d="M6.58,12.86"/>
	<path class="st1" d="M5.81,13.63"/>
	<path class="st1" d="M6.48,5.32c0,0-1,1-1.08,1.08c0.13,0.13,1.5,1.5,1.5,1.5"/>
	<line class="st1" x1="10.48" y1="4.2" x2="12.14" y2="5.86"/>
	<path class="st1" d="M10.3,9.14"/>
	<path class="st1" d="M9.21,10.23"/>
	<path class="st1" d="M8.87,5.53"/>
	<path class="st1" d="M11.01,7.68"/>
	<path class="st1" d="M12.1,8.06"/>
	<path class="st1" d="M9.32,10.88l0.51-0.51c-0.06-0.06-0.15-0.15-0.15-0.15"/>
	<line class="st1" x1="5.25" y1="6.55" x2="5.54" y2="6.55"/>
	<path class="st1" d="M9.82,10.37"/>
	<path class="st1" d="M9.89,1.83c-0.15,0.15-0.4,0.4-0.4,0.4s-1.19,1.19-1.6,1.6C7.9,3.96,7.92,4.57,7.92,4.57s0,0.01,0,0.02
		c0.2,0.2,0.79,0.79,1.15,1.15C7.84,6.98,5.69,9.13,5.69,9.13"/>
	<path class="st1" d="M11.22,5.74"/>
	
		<rect x="11.71" y="0.49" transform="matrix(0.7071 -0.7071 0.7071 0.7071 1.1938 9.8371)" class="st1" width="1.53" height="5.97"/>
	
		<rect x="12.85" y="0.2" transform="matrix(0.7071 -0.7071 0.7071 0.7071 2.2321 10.1927)" class="st1" width="1.13" height="4.41"/>
	
		<rect x="13.74" y="0.16" transform="matrix(0.7071 -0.7071 0.7071 0.7071 2.9899 10.4563)" class="st1" width="0.75" height="2.91"/>
	
		<rect x="2.62" y="9.6" transform="matrix(-0.7071 0.7071 -0.7071 -0.7071 14.6781 19.0803)" class="st1" width="1.53" height="5.97"/>
	
		<rect x="1.15" y="12.77" transform="matrix(-0.7071 0.7071 -0.7071 -0.7071 12.6652 23.2018)" class="st1" width="0.75" height="2.91"/>
	<line class="st1" x1="15.13" y1="5.05" x2="15.86" y2="5.04"/>
	<path class="st1" d="M15.86,5.04c0,0-0.59,0.6-1.08,1.09c-0.01,0-0.02,0-0.02,0l-0.72,0"/>
	<line class="st1" x1="15.86" y1="5.04" x2="15.16" y2="4.34"/>
	<path class="st1" d="M15.94,3.56C15.94,3.56,15.94,3.56,15.94,3.56c0,0-0.44,0.44-0.8,0.8c-0.01,0-0.02,0-0.02,0l-0.54,0"/>
	<line class="st1" x1="15.93" y1="3.56" x2="15.26" y2="2.9"/>
	<path class="st1" d="M10.9,0.82h0.7c0,0,0.02,0,0.05,0c0.06,0.06,0.12,0.12,0.12,0.12"/>
	<line class="st1" x1="15.37" y1="3.55" x2="15.92" y2="3.55"/>
	<path class="st1" d="M12.27,0.44h0.52c0,0,0.02,0,0.04,0c0.04,0.04,0.21,0.21,0.21,0.21"/>
	
		<rect x="1.74" y="11.34" transform="matrix(0.7095 -0.7047 0.7047 0.7095 -8.8754 5.5628)" class="st1" width="1.13" height="4.41"/>
	<line class="st1" x1="6.04" y1="14.15" x2="6.77" y2="14.15"/>
	<path class="st1" d="M6.77,14.15c0,0-0.59,0.6-1.08,1.09c-0.01,0-0.02,0-0.02,0l-0.72,0.01"/>
	<line class="st1" x1="6.77" y1="14.15" x2="6.26" y2="13.63"/>
	<path class="st1" d="M4.63,14.9c0,0-0.24,0.24-0.61,0.61c-0.01,0-0.02,0-0.02,0l-0.54,0"/>
	<path class="st1" d="M3.07,15.11c0,0-0.18,0.18-0.42,0.42c-0.01,0-0.01,0-0.01,0l-0.35,0"/>
	<line class="st1" x1="4.26" y1="14.71" x2="4.44" y2="14.71"/>
	<line class="st1" x1="2.82" y1="14.99" x2="2.95" y2="14.99"/>
	<line class="st1" x1="15.75" y1="2.38" x2="15.41" y2="2.38"/>
	<path class="st1" d="M14.88,2.91c0,0,0.24,0,0.33,0c0.24-0.24,0.55-0.54,0.55-0.54"/>
	<path class="st1" d="M14.09,0.72"/>
	<path class="st1" d="M13.35,0.32l0.26,0c0,0,0.04,0,0.07,0c0.64,0.64,2.06,2.05,2.06,2.05"/>
	<path class="st1" d="M9.82,10.38c0,0-0.38,0-0.76,0C8.48,9.8,7.82,9.14,7.82,9.14"/>
	<path class="st1" d="M9.45,7.52c0,0,1.23,1.23,1.62,1.62c-0.19,0.19-0.79,0.79-1.09,1.09c-0.12,0-0.76,0-0.76,0
		C8.97,9.97,7.97,8.98,7.97,8.98"/>
	<path class="st1" d="M8.37,6.44c0,0-0.7-0.7-1.12-1.12c-0.05,0-0.09,0-0.09,0H6.48"/>
	<path class="st1" d="M14.04,6.13c0.01,0-0.84,0.91-1.93,1.93c-0.01,0-0.01,0-0.01,0s-0.67,0-0.7,0C11.34,8.01,10.33,7,10.33,7
		s-0.01-0.01-0.02-0.02c-0.01-0.65-0.01-1.82,0.01-2.17c0.3,0.3,1.23,1.23,1.43,1.43c0.54-0.54,1.2-1.2,1.2-1.2"/>
	<line class="st1" x1="1.82" y1="9.93" x2="2.11" y2="9.93"/>
	<line class="st1" x1="1.16" y1="11.58" x2="1.31" y2="11.58"/>
	<line class="st1" x1="0.76" y1="12.93" x2="0.9" y2="12.93"/>
	<rect x="0.02" y="0.05" class="st1" width="15.95" height="15.95"/>
</g>
<g id="Layer_4">
</g>
<g id="Layer_1_copy" class="st0">
	<path class="st1" d="M9.46,5.41"/>
	<path class="st1" d="M6.76,8.06c0,0-1.5-1.5-1.51-1.51C4.9,6.9,4.42,7.38,4.18,7.62c0.33,0.33,1.16,1.16,1.51,1.51
		c-0.3,0.3-0.96,0.96-1.11,1.11c0,0-1.14-1.14-1.51-1.51C2.66,9.14,2.19,9.61,1.99,9.81c0.44,0.44,1.24,1.24,1.51,1.51
		c0,0,2.06,0,2.14,0c0.15-0.15,0.8-0.8,1.1-1.1c0.23,0.23,0.89,0.89,1.25,1.25c0,0,0.51,0,0.76,0c0.15-0.15,0.71-0.71,0.71-0.71"/>
	<path class="st1" d="M9.07,10.37"/>
	<path class="st1" d="M3.5,11.32"/>
	<line class="st1" x1="7.99" y1="6.83" x2="6.48" y2="5.32"/>
	<path class="st1" d="M11.13,5.21"/>
	<path class="st1" d="M10.88,7.55"/>
	<path class="st1" d="M9.7,2.03"/>
	<path class="st1" d="M12.63,5.6"/>
	<path class="st1" d="M6.75,10.2c0,0,2.52-2.52,3.41-3.41c0-0.74,0-2.08,0-2.08s0-0.03,0-0.08C10,4.48,9.75,4.23,9.72,4.2
		c0.09-0.09,1.2-1.2,1.2-1.2"/>
	<path class="st1" d="M11.23,5.72"/>
	<path class="st1" d="M11.08,7.75"/>
	<path class="st1" d="M4.98,9.84"/>
	<path class="st1" d="M6.06,10.86"/>
	<path class="st1" d="M7.65,12.55c0,0-0.75,0-0.75,0c-0.31-0.31-0.93-0.93-1.08-1.08c-0.02,0-0.04,0-0.04,0s-2.12,0-2.14,0
		c0.01,0.01,1.46,1.46,2.17,2.17c0,0,0.73,0,0.75,0C7.06,13.14,7.66,12.55,7.65,12.55c0.01,0-1.63-1.64-1.63-1.64"/>
	<path class="st1" d="M11.07,9.13c0,0-0.63,0-0.76,0L9.05,7.88"/>
	<line class="st1" x1="9.71" y1="4.2" x2="10.48" y2="4.2"/>
	<line class="st1" x1="10.48" y1="4.2" x2="11.3" y2="3.38"/>
	<path class="st1" d="M4.96,9.85c0,0-0.65-0.65-1.13-1.13c-0.04,0-0.06,0-0.06,0h-0.7"/>
	<path class="st1" d="M6.58,12.86"/>
	<path class="st1" d="M5.81,13.63"/>
	<path class="st1" d="M6.48,5.32c0,0-1,1-1.08,1.08c0.13,0.13,1.5,1.5,1.5,1.5"/>
	<line class="st1" x1="10.48" y1="4.2" x2="12.14" y2="5.86"/>
	<path class="st1" d="M10.3,9.14"/>
	<path class="st1" d="M9.21,10.23"/>
	<path class="st1" d="M8.87,5.53"/>
	<path class="st1" d="M11.01,7.68"/>
	<path class="st1" d="M12.1,8.06"/>
	<path class="st1" d="M9.32,10.88l0.51-0.51c-0.06-0.06-0.15-0.15-0.15-0.15"/>
	<line class="st1" x1="5.25" y1="6.55" x2="5.54" y2="6.55"/>
	<path class="st1" d="M9.82,10.37"/>
	<path class="st1" d="M9.89,1.83c-0.15,0.15-0.4,0.4-0.4,0.4s-1.19,1.19-1.6,1.6C7.9,3.96,7.92,4.57,7.92,4.57s0,0.01,0,0.02
		c0.2,0.2,0.79,0.79,1.15,1.15C7.84,6.98,5.69,9.13,5.69,9.13"/>
	<path class="st1" d="M11.22,5.74"/>
	
		<rect x="11.71" y="0.49" transform="matrix(0.7071 -0.7071 0.7071 0.7071 1.1938 9.8371)" class="st1" width="1.53" height="5.97"/>
	
		<rect x="12.85" y="0.2" transform="matrix(0.7071 -0.7071 0.7071 0.7071 2.2321 10.1927)" class="st1" width="1.13" height="4.41"/>
	
		<rect x="2.62" y="9.6" transform="matrix(-0.7071 0.7071 -0.7071 -0.7071 14.6781 19.0803)" class="st1" width="1.53" height="5.97"/>
	<line class="st1" x1="15.13" y1="5.05" x2="15.86" y2="5.04"/>
	<path class="st1" d="M15.86,5.04c0,0-0.59,0.6-1.08,1.09c-0.01,0-0.02,0-0.02,0l-0.72,0"/>
	<line class="st1" x1="15.86" y1="5.04" x2="15.16" y2="4.34"/>
	<path class="st1" d="M15.94,3.56C15.94,3.56,15.94,3.56,15.94,3.56c0,0-0.44,0.44-0.8,0.8c-0.01,0-0.02,0-0.02,0l-0.54,0"/>
	<line class="st1" x1="15.93" y1="3.56" x2="15.26" y2="2.9"/>
	<path class="st1" d="M10.9,0.82h0.7c0,0,0.02,0,0.05,0c0.06,0.06,0.12,0.12,0.12,0.12"/>
	<line class="st1" x1="15.37" y1="3.55" x2="15.92" y2="3.55"/>
	<path class="st1" d="M12.27,0.44h0.52c0,0,0.02,0,0.04,0c0.04,0.04,2.45,2.46,2.45,2.46"/>
	
		<rect x="1.74" y="11.34" transform="matrix(0.7095 -0.7047 0.7047 0.7095 -8.8754 5.5628)" class="st1" width="1.13" height="4.41"/>
	<line class="st1" x1="6.04" y1="14.15" x2="6.77" y2="14.15"/>
	<path class="st1" d="M6.77,14.15c0,0-0.59,0.6-1.08,1.09c-0.01,0-0.02,0-0.02,0l-0.72,0.01"/>
	<line class="st1" x1="6.77" y1="14.15" x2="6.26" y2="13.63"/>
	<path class="st1" d="M4.63,14.9c0,0-0.24,0.24-0.61,0.61c-0.01,0-0.02,0-0.02,0l-0.54,0"/>
	<line class="st1" x1="4.26" y1="14.71" x2="4.44" y2="14.71"/>
	<path class="st1" d="M14.09,0.72"/>
	<path class="st1" d="M9.82,10.38c0,0-0.38,0-0.76,0C8.48,9.8,7.82,9.14,7.82,9.14"/>
	<path class="st1" d="M9.45,7.52c0,0,1.23,1.23,1.62,1.62c-0.19,0.19-0.79,0.79-1.09,1.09c-0.12,0-0.76,0-0.76,0
		C8.97,9.97,7.97,8.98,7.97,8.98"/>
	<path class="st1" d="M8.37,6.44c0,0-0.7-0.7-1.12-1.12c-0.05,0-0.09,0-0.09,0H6.48"/>
	<path class="st1" d="M14.04,6.13c0.01,0-0.84,0.91-1.93,1.93c-0.01,0-0.01,0-0.01,0s-0.67,0-0.7,0C11.34,8.01,10.33,7,10.33,7
		s-0.01-0.01-0.02-0.02c-0.01-0.65-0.01-1.82,0.01-2.17c0.3,0.3,1.23,1.23,1.43,1.43c0.54-0.54,1.2-1.2,1.2-1.2"/>
	<line class="st1" x1="1.82" y1="9.93" x2="2.11" y2="9.93"/>
	<line class="st1" x1="1.16" y1="11.58" x2="1.31" y2="11.58"/>
	<rect x="0.02" y="0.05" class="st1" width="15.95" height="15.95"/>
</g>
<g id="Layer_1_copy_2">
	<path class="st2" d="M9.46,5.41"/>
	<path class="st2" d="M6.74,10.22c0.27,0.27,1.04,1.04,1.25,1.25c0,0,0.51,0,0.76,0c0.15-0.15,0.71-0.71,0.71-0.71"/>
	<path class="st2" d="M9.07,10.37"/>
	<path class="st2" d="M3.5,11.32"/>
	<path class="st2" d="M11.13,5.21"/>
	<path class="st2" d="M10.88,7.55"/>
	<path class="st2" d="M9.7,2.03"/>
	<path class="st2" d="M12.63,5.6"/>
	<path class="st2" d="M11.23,5.72"/>
	<path class="st2" d="M11.08,7.75"/>
	<path class="st2" d="M4.98,9.84"/>
	<path class="st2" d="M6.06,10.86"/>
	<path class="st2" d="M7.65,12.55c0,0-0.75,0-0.75,0c-0.31-0.31-0.93-0.93-1.08-1.08c-0.02,0-0.04,0-0.04,0s-2.12,0-2.14,0
		c0.01,0.01,1.46,1.46,2.17,2.17c0,0,0.73,0,0.75,0C7.06,13.14,7.66,12.55,7.65,12.55c0.01,0-1.63-1.64-1.63-1.64"/>
	<path class="st2" d="M11.07,9.13c0,0-0.63,0-0.76,0L9.05,7.88"/>
	<line class="st2" x1="9.71" y1="4.2" x2="10.48" y2="4.2"/>
	<line class="st2" x1="10.48" y1="4.2" x2="11.3" y2="3.38"/>
	<path class="st2" d="M4.96,9.85c0,0-0.65-0.65-1.13-1.13c-0.04,0-0.06,0-0.06,0h-0.7"/>
	<path class="st2" d="M6.58,12.86"/>
	<path class="st2" d="M5.81,13.63"/>
	<line class="st2" x1="10.48" y1="4.2" x2="12.14" y2="5.86"/>
	<path class="st2" d="M10.3,9.14"/>
	<path class="st2" d="M9.21,10.23"/>
	<path class="st2" d="M8.87,5.53"/>
	<path class="st2" d="M11.01,7.68"/>
	<path class="st2" d="M12.1,8.06"/>
	<path class="st2" d="M9.35,10.86l0.51-0.51C9.8,10.29,9.71,10.2,9.71,10.2"/>
	<line class="st2" x1="5.25" y1="6.55" x2="5.54" y2="6.55"/>
	<path class="st2" d="M9.82,10.37"/>
	<polygon points="1.1,10.65 1.82,9.93 2.11,9.93 6.78,14.15 5.69,15.24 4.96,15.23 	"/>
	<polygon points="0.6,12.14 1.16,11.59 1.28,11.58 4.61,14.92 4.01,15.52 3.46,15.51 	"/>
	<polygon points="10.57,1.92 10.9,0.82 11.65,0.83 15.86,5.04 14.77,6.12 14.04,6.13 	"/>
	<polygon points="11.72,1.53 12.26,0.44 12.81,0.44 15.93,3.56 14.84,4.64 	"/>
	<polygon class="st3" points="2.1,9.73 3.05,8.75 3.84,8.74 7.65,12.55 6.3,13.93 	"/>
	<rect x="9.35" y="3.18" transform="matrix(0.7071 -0.7071 0.7071 0.7071 -0.9143 8.985)" width="2.07" height="4.83"/>
	<rect x="9.07" y="2.31" transform="matrix(0.7071 -0.7071 0.7071 0.7071 0.686 8.1032)" width="2.11" height="1.83"/>
	<polygon points="4.57,7.23 5.25,6.55 5.53,6.55 9.86,10.35 8.81,11.4 	"/>
	<polygon points="5.81,5.99 6.48,5.32 7.28,5.29 11.09,9.1 10.01,10.19 	"/>
	<path class="st4" d="M9.33,10.88c0,0,0.47-0.47,0.51-0.51c0,0-0.39,0-0.77,0C8.5,9.8,7.84,9.14,7.84,9.14s-0.52,0.52-1.08,1.08
		C7.03,10.5,7.79,11.26,8,11.46c0,0,0.51,0,0.76,0c0.15-0.15,0.71-0.71,0.71-0.71"/>
	<path class="st4" d="M6.9,7.91c0,0-1.38-1.38-1.5-1.5c0.08-0.08,1.08-1.08,1.08-1.08c0.53,0.53,1.51,1.51,1.51,1.51"/>
	<path class="st4" d="M5.69,9.13c-0.4-0.4-1.23-1.23-1.51-1.51C4.42,7.38,4.9,6.9,5.25,6.55c0.01,0.01,1.51,1.51,1.51,1.51"/>
	<path class="st5" d="M9.82,1.91C9.66,2.06,9.49,2.23,9.49,2.23s-1.19,1.19-1.6,1.6C7.9,3.96,7.92,4.57,7.93,4.59
		c0.2,0.2,0.79,0.79,1.15,1.15C7.84,6.98,5.69,9.13,5.69,9.13s-0.7,0.7-1.11,1.11c0,0-1.14-1.14-1.51-1.51
		C2.66,9.14,2.19,9.61,1.99,9.81c0.44,0.44,1.24,1.24,1.51,1.51c0,0,2.06,0,2.14,0c0.15-0.15,0.48-0.48,0.78-0.78
		c0.17-0.17,0.34-0.34,0.34-0.34s2.52-2.52,3.41-3.41c0-0.74,0-2.08,0-2.08s0-0.03,0-0.08C10,4.48,9.75,4.23,9.72,4.2
		c0.09-0.09,1.2-1.2,1.2-1.2"/>
	<path class="st2" d="M11.22,5.74"/>
	
		<rect x="11.71" y="0.49" transform="matrix(0.7071 -0.7071 0.7071 0.7071 1.1938 9.8371)" class="st5" width="1.53" height="5.97"/>
	
		<rect x="12.85" y="0.2" transform="matrix(0.7071 -0.7071 0.7071 0.7071 2.2321 10.1927)" class="st5" width="1.13" height="4.41"/>
	
		<rect x="2.62" y="9.6" transform="matrix(-0.7071 0.7071 -0.7071 -0.7071 14.6781 19.0803)" class="st5" width="1.53" height="5.97"/>
	<line class="st2" x1="15.13" y1="5.05" x2="15.86" y2="5.04"/>
	<path class="st2" d="M15.88,5.03c0,0-0.59,0.6-1.09,1.1c-0.01,0-0.02,0-0.02,0l-0.72,0"/>
	<line class="st2" x1="15.86" y1="5.04" x2="15.16" y2="4.34"/>
	<path class="st2" d="M15.94,3.56C15.94,3.56,15.94,3.56,15.94,3.56c0,0-0.44,0.44-0.8,0.8c-0.01,0-0.02,0-0.02,0l-0.54,0"/>
	<line class="st2" x1="15.93" y1="3.56" x2="15.26" y2="2.9"/>
	<path class="st2" d="M10.9,0.82h0.7c0,0,0.02,0,0.05,0c0.06,0.06,0.12,0.12,0.12,0.12"/>
	<line class="st2" x1="15.37" y1="3.55" x2="15.92" y2="3.55"/>
	<path class="st2" d="M12.27,0.44h0.52c0,0,0.02,0,0.04,0c0.04,0.04,2.45,2.46,2.45,2.46"/>
	
		<rect x="1.74" y="11.34" transform="matrix(0.7095 -0.7047 0.7047 0.7095 -8.8754 5.5628)" class="st5" width="1.13" height="4.41"/>
	<line class="st2" x1="6.04" y1="14.15" x2="6.77" y2="14.15"/>
	<path class="st2" d="M6.77,14.15c0,0-0.59,0.6-1.08,1.09c-0.01,0-0.02,0-0.02,0l-0.71,0"/>
	<line class="st2" x1="6.77" y1="14.15" x2="6.26" y2="13.63"/>
	<path class="st2" d="M4.63,14.9c0,0-0.24,0.24-0.61,0.61c-0.01,0-0.01,0.01-0.01,0.01l-0.54,0"/>
	<line class="st2" x1="4.26" y1="14.71" x2="4.44" y2="14.71"/>
	<path class="st2" d="M14.09,0.72"/>
	<path class="st2" d="M9.82,10.38c0,0-0.38,0-0.76,0C8.48,9.8,7.82,9.14,7.82,9.14"/>
	<path class="st2" d="M9.47,7.5c0,0,1.23,1.23,1.62,1.62c-0.19,0.19-0.8,0.8-1.1,1.1c-0.12,0-0.77,0.01-0.77,0.01
		C8.97,9.97,7.97,8.98,7.97,8.98"/>
	<path class="st2" d="M8.37,6.44c0,0-0.7-0.7-1.12-1.12c-0.05,0-0.09,0-0.09,0H6.48"/>
	<path class="st4" d="M14.04,6.13c0.01,0-0.84,0.91-1.93,1.93c-0.01,0-0.01,0-0.01,0s-0.67,0-0.7,0C11.34,8.01,10.33,7,10.33,7
		s-0.01-0.01-0.02-0.02c-0.01-0.65-0.01-1.82,0.01-2.17c0.3,0.3,1.23,1.23,1.43,1.43c0.54-0.54,1.2-1.2,1.2-1.2L14.04,6.13z"/>
	<line class="st2" x1="1.82" y1="9.93" x2="2.11" y2="9.93"/>
	<line class="st2" x1="1.16" y1="11.58" x2="1.31" y2="11.58"/>
	<path class="st2" d="M8.84,0.4"/>
	<path class="st4" d="M3.96,11.78c-0.19-0.19-0.32-0.32-0.32-0.32c0.02,0,2.14,0,2.14,0s0.02,0,0.04,0
		c0.15,0.15,0.77,0.77,1.08,1.08c0,0,0.72,0.03,0.72,0.03c0,0-0.56,0.56-1.06,1.06c-0.02,0-0.75,0-0.75,0
		C5.31,13.13,4.43,12.26,3.96,11.78z"/>
	<path class="st4" d="M9.95,8.77C9.58,8.4,9.07,7.89,9.07,7.89S8.57,8.4,7.99,9c0,0,0.98,0.98,1.23,1.23c0,0,0.64,0,0.76,0
		c0.3-0.3,0.9-0.9,1.09-1.09c-0.02,0-0.62,0-0.75,0C10.32,9.13,10.15,8.97,9.95,8.77z"/>
</g>
</svg>
